<svg xmlns="http://www.w3.org/2000/svg" xmlns:xlink="http://www.w3.org/1999/xlink" width="31" height="31" viewBox="0 0 31 31">
  <defs>
    <clipPath id="clip-path">
      <rect id="Rectangle_87" data-name="Rectangle 87" width="31" height="31" fill="#fff"/>
    </clipPath>
  </defs>
  <g id="famille" transform="translate(-41 -165.89)">
    <g id="Groupe_135" data-name="Groupe 135" transform="translate(41 165.89)">
      <g id="Groupe_134" data-name="Groupe 134" clip-path="url(#clip-path)">
        <path id="Tracé_320" data-name="Tracé 320" d="M69.275,171.4H56.859l3.919-3.963a.908.908,0,0,0-1.291-1.277l-4.8,4.857-4.8-4.857a.908.908,0,0,0-1.291,1.277l3.919,3.963H43.725A2.728,2.728,0,0,0,41,174.124v18.225a2.728,2.728,0,0,0,2.725,2.725h1.5l-.266.266a.908.908,0,1,0,1.284,1.284l1.551-1.55H65.266l1.55,1.55a.908.908,0,0,0,1.284-1.284l-.266-.266h1.44A2.728,2.728,0,0,0,72,192.349V174.124a2.728,2.728,0,0,0-2.725-2.725Zm.908,20.949a.909.909,0,0,1-.908.908H43.725a.909.909,0,0,1-.908-.908V174.124a.909.909,0,0,1,.908-.908H69.275a.909.909,0,0,1,.908.908Zm0,0" transform="translate(-41 -165.89)" fill="#fff"/>
      </g>
    </g>
    <path id="Tracé_321" data-name="Tracé 321" d="M117.439,316.89H104.725A2.728,2.728,0,0,0,102,319.615v10.9a2.728,2.728,0,0,0,2.725,2.725h12.715a2.728,2.728,0,0,0,2.725-2.725v-10.9a2.728,2.728,0,0,0-2.725-2.725Zm.908,13.623a.909.909,0,0,1-.908.908H104.725a.909.909,0,0,1-.908-.908v-10.9a.909.909,0,0,1,.908-.908h12.715a.909.909,0,0,1,.908.908Zm0,0" transform="translate(-57.307 -141.857)" fill="#fff"/>
    <path id="Tracé_322" data-name="Tracé 322" d="M434.816,331.89a1.816,1.816,0,1,0,1.816,1.816,1.818,1.818,0,0,0-1.816-1.816Zm0,0" transform="translate(-368.266 -155.949)" fill="#fff"/>
    <path id="Tracé_323" data-name="Tracé 323" d="M435.725,421.89h-1.816a.908.908,0,0,0,0,1.816h1.816a.908.908,0,0,0,0-1.816Zm0,0" transform="translate(-368.266 -240.5)" fill="#fff"/>
    <path id="Tracé_324" data-name="Tracé 324" d="M435.725,481.89h-1.816a.908.908,0,0,0,0,1.816h1.816a.908.908,0,0,0,0-1.816Zm0,0" transform="translate(-368.266 -296.867)" fill="#fff"/>
    <path id="Tracé_325" data-name="Tracé 325" d="M435.725,541.89h-1.816a.908.908,0,0,0,0,1.816h1.816a.908.908,0,0,0,0-1.816Zm0,0" transform="translate(-368.266 -353.234)" fill="#fff"/>
  </g>
</svg>
