<svg xmlns="http://www.w3.org/2000/svg" width="28.993" height="26.588" viewBox="0 0 28.993 26.588">
  <g id="animation" transform="translate(-1.132 -2.247)">
    <path id="Tracé_344" data-name="Tracé 344" d="M24.2,20.46a7.949,7.949,0,0,0-15.326,0l-1.1,4a4.834,4.834,0,0,0,4.66,6.119h8.212A4.834,4.834,0,0,0,25.3,24.457ZM22.949,27.5a2.879,2.879,0,0,1-2.307,1.144H12.431a2.9,2.9,0,0,1-2.8-3.672l1.1-4a6.016,6.016,0,0,1,11.6,0l1.1,4A2.878,2.878,0,0,1,22.95,27.5Z" transform="translate(-0.909 -1.741)" fill="#fff"/>
    <path id="Tracé_345" data-name="Tracé 345" d="M8.987,15.283a4.85,4.85,0,0,0-.628-3.17A4.852,4.852,0,0,0,5.928,9.984a3.511,3.511,0,0,0-3.059.182c-1.805,1.042-2.281,3.613-1.06,5.728A4.848,4.848,0,0,0,4.24,18.024a3.87,3.87,0,0,0,1.382.264A3.332,3.332,0,0,0,7.3,17.841a3.512,3.512,0,0,0,1.688-2.558Zm-1.909-.306a1.618,1.618,0,0,1-.745,1.189,1.616,1.616,0,0,1-1.4.051,2.908,2.908,0,0,1-1.446-1.29c-.676-1.172-.516-2.586.351-3.087a1.419,1.419,0,0,1,.716-.185,1.931,1.931,0,0,1,.687.134,2.908,2.908,0,0,1,1.446,1.29,2.919,2.919,0,0,1,.394,1.9Z" transform="translate(0 -1.051)" fill="#fff"/>
    <path id="Tracé_346" data-name="Tracé 346" d="M10.224,10.226a3.615,3.615,0,0,0,2.263.834,3.321,3.321,0,0,0,.706-.076c2.037-.443,3.273-2.746,2.754-5.134a4.847,4.847,0,0,0-1.667-2.769,3.508,3.508,0,0,0-2.97-.758c-2.037.443-3.273,2.746-2.754,5.134a4.847,4.847,0,0,0,1.667,2.769Zm1.5-6.013a1.345,1.345,0,0,1,.286-.03,1.722,1.722,0,0,1,1.066.41,2.913,2.913,0,0,1,.985,1.669c.288,1.322-.3,2.62-1.275,2.833a1.615,1.615,0,0,1-1.352-.379,2.916,2.916,0,0,1-.985-1.669c-.288-1.323.3-2.621,1.275-2.833Z" transform="translate(-1.028)" fill="#fff"/>
    <path id="Tracé_347" data-name="Tracé 347" d="M31.837,10.166a3.511,3.511,0,0,0-3.059-.182,5.017,5.017,0,0,0-3.059,5.3,3.509,3.509,0,0,0,1.688,2.558,3.331,3.331,0,0,0,1.678.447,3.87,3.87,0,0,0,1.382-.264A4.848,4.848,0,0,0,32.9,15.9c1.222-2.116.747-4.686-1.06-5.728Zm-.615,4.761a2.916,2.916,0,0,1-1.446,1.29,1.5,1.5,0,0,1-2.147-1.24,3.09,3.09,0,0,1,1.84-3.187,1.931,1.931,0,0,1,.687-.134,1.419,1.419,0,0,1,.716.185c.868.5,1.029,1.915.351,3.087Z" transform="translate(-3.451 -1.051)" fill="#fff"/>
    <path id="Tracé_348" data-name="Tracé 348" d="M21.558,10.985a3.321,3.321,0,0,0,.706.076,3.621,3.621,0,0,0,2.263-.834,4.853,4.853,0,0,0,1.667-2.769c.519-2.387-.717-4.69-2.754-5.134a3.512,3.512,0,0,0-2.97.758A4.849,4.849,0,0,0,18.8,5.851c-.519,2.387.717,4.69,2.754,5.134Zm-.864-4.723a2.91,2.91,0,0,1,.985-1.669,1.722,1.722,0,0,1,1.066-.41,1.345,1.345,0,0,1,.286.03c.979.213,1.563,1.511,1.275,2.833a2.91,2.91,0,0,1-.985,1.669,1.614,1.614,0,0,1-1.352.379c-.979-.212-1.563-1.51-1.275-2.833Z" transform="translate(-2.469 0)" fill="#fff"/>
  </g>
</svg>
