<svg xmlns="http://www.w3.org/2000/svg" width="17.656" height="15.135" viewBox="0 0 17.656 15.135">
  <path id="heart-on" d="M8.828,15.134a.59.59,0,0,1-.434-.178L2.246,9.025a3.264,3.264,0,0,1-.271-.256q-.172-.177-.547-.645a8.7,8.7,0,0,1-.67-.961A5.988,5.988,0,0,1,.231,5.971,4.3,4.3,0,0,1,0,4.611a4.519,4.519,0,0,1,1.251-3.39A4.74,4.74,0,0,1,4.71,0,3.924,3.924,0,0,1,5.956.212,5.061,5.061,0,0,1,7.139.783q.547.36.941.675a9.284,9.284,0,0,1,.749.67,9.066,9.066,0,0,1,.749-.67q.394-.315.941-.675A5.048,5.048,0,0,1,11.7.212,3.926,3.926,0,0,1,12.947,0,4.739,4.739,0,0,1,16.4,1.222a4.519,4.519,0,0,1,1.251,3.39A6.442,6.442,0,0,1,15.4,9.045L9.261,14.957a.59.59,0,0,1-.434.178Z" fill="#fff"/>
</svg>
