<svg xmlns="http://www.w3.org/2000/svg" width="29.373" height="26.676" viewBox="0 0 29.373 26.676">
  <g id="aventure" transform="translate(0 -23.5)">
    <path id="Tracé_334" data-name="Tracé 334" d="M30.861,70.221h4.36a.861.861,0,1,0,0-1.721h-4.36a.861.861,0,1,0,0,1.721Z" transform="translate(-28.279 -42.418)" fill="#fff"/>
    <path id="Tracé_335" data-name="Tracé 335" d="M35.221,190.221a.861.861,0,0,0,0-1.721h-4.36a.861.861,0,0,0,0,1.721Z" transform="translate(-28.279 -155.534)" fill="#fff"/>
    <path id="Tracé_336" data-name="Tracé 336" d="M.861,130.221h4.36a.861.861,0,0,0,0-1.721H.861a.861.861,0,0,0,0,1.721Z" transform="translate(0 -98.976)" fill="#fff"/>
    <path id="Tracé_337" data-name="Tracé 337" d="M212.407,118.641h-5.221V115.2a1.724,1.724,0,0,0-2.938-1.216l-6.884,6.884a1.72,1.72,0,0,0,0,2.434l3.946,3.946-4.807,4.807a1.721,1.721,0,1,0,2.434,2.434l6.024-6.024a1.72,1.72,0,0,0,0-2.434l-3.946-3.946,2.729-2.729v1.008a1.721,1.721,0,0,0,1.721,1.721h6.942a1.721,1.721,0,1,0,0-3.442Z" transform="translate(-184.756 -84.815)" fill="#fff"/>
    <path id="Tracé_338" data-name="Tracé 338" d="M153.937,53.677l3.735-3.735,1.258.906,1.681-1.681a3.422,3.422,0,0,1,.976-.67l-3.18-2.2a1.722,1.722,0,0,0-2.172.215L151.5,51.243a1.721,1.721,0,1,0,2.434,2.434Z" transform="translate(-142.336 -21.215)" fill="#fff"/>
    <path id="Tracé_339" data-name="Tracé 339" d="M26.474,280.4a3.411,3.411,0,0,1-.881-1.553L16.5,287.939a1.721,1.721,0,0,0,2.434,2.434l8.753-8.753Z" transform="translate(-15.082 -240.701)" fill="#fff"/>
    <circle id="Ellipse_36" data-name="Ellipse 36" cx="2.582" cy="2.582" r="2.582" transform="translate(20.71 23.5)" fill="#fff"/>
  </g>
</svg>
