<svg xmlns="http://www.w3.org/2000/svg" width="32.625" height="32.617" viewBox="0 0 32.625 32.617">
  <g id="drama" transform="translate(22 -101.89)">
    <path id="Tracé_326" data-name="Tracé 326" d="M-14.126,127.739l2.7,1.081,2.449-.979a12.345,12.345,0,0,0,6.318,5.585l2.7,1.081,2.7-1.081a12.413,12.413,0,0,0,7.875-11.488V107.2l-1.311.524A25.058,25.058,0,0,1-.909,109.477V101.89l-1.288.478a26.623,26.623,0,0,1-9.258,1.66,26.633,26.633,0,0,1-9.258-1.66L-22,101.89V116.2a12.48,12.48,0,0,0,7.874,11.537ZM-.909,116.2V111.39a27.036,27.036,0,0,0,9.622-1.408v11.955a10.461,10.461,0,0,1-6.673,9.713l-1.993.8-1.993-.8a10.457,10.457,0,0,1-5.292-4.62A12.424,12.424,0,0,0-.909,116.2Zm-19.18-11.6a28.556,28.556,0,0,0,17.268,0v11.6a10.464,10.464,0,0,1-6.609,9.762l-1.993.8-1.993-.8a10.631,10.631,0,0,1-6.673-9.762Zm0,0" fill="#fff"/>
    <path id="Tracé_327" data-name="Tracé 327" d="M93.549,404.4v-.956H91.637v.956a4.779,4.779,0,0,0,9.558,0v-.956H99.284v.956a2.867,2.867,0,0,1-5.735,0Zm0,0" transform="translate(-107.839 -286.163)" fill="#fff"/>
    <path id="Tracé_328" data-name="Tracé 328" d="M57.043,292.965a.957.957,0,0,1,.956.956h1.912a2.867,2.867,0,0,0-5.735,0h1.911a.957.957,0,0,1,.956-.956Zm0,0" transform="translate(-72.289 -179.512)" fill="#fff"/>
    <path id="Tracé_329" data-name="Tracé 329" d="M206.9,292.965a.957.957,0,0,1,.956.956h1.912a2.867,2.867,0,0,0-5.735,0h1.912a.957.957,0,0,1,.956-.956Zm0,0" transform="translate(-214.495 -179.512)" fill="#fff"/>
    <path id="Tracé_330" data-name="Tracé 330" d="M316.418,520.61v.956h1.912v-.956a2.867,2.867,0,0,1,5.735,0v.956h1.911v-.956a4.779,4.779,0,1,0-9.558,0Zm0,0" transform="translate(-321.15 -392.819)" fill="#fff"/>
    <path id="Tracé_331" data-name="Tracé 331" d="M431.676,405.352a.957.957,0,0,1,.956.956h1.912a2.867,2.867,0,1,0-5.735,0h1.912a.957.957,0,0,1,.956-.956Zm0,0" transform="translate(-427.806 -286.163)" fill="#fff"/>
  </g>
</svg>
