<svg xmlns="http://www.w3.org/2000/svg" width="31.084" height="28.495" viewBox="0 0 31.084 28.495">
  <path id="action" d="M15.542,2.59a2.5,2.5,0,0,0-1.831.759,2.5,2.5,0,0,0-.759,1.831v2.59H12.3V5.889a2.3,2.3,0,0,0-.648-1.649,2.146,2.146,0,0,0-1.619-.678A2.279,2.279,0,0,0,7.771,5.828V14.51L7.123,13.9V10.422a2.3,2.3,0,0,0-.648-1.649,2.146,2.146,0,0,0-1.619-.678,2.183,2.183,0,0,0-1.6.667,2.177,2.177,0,0,0-.667,1.6v4.533A2.272,2.272,0,0,0,3.3,16.554l6.274,5.99a2.792,2.792,0,0,1,.789,2.064,1.312,1.312,0,0,0,1.3,1.3H24.608a1.312,1.312,0,0,0,1.3-1.3V24.1a5.811,5.811,0,0,1,.2-1.558l2.185-8.823a5.811,5.811,0,0,0,.2-1.558V7.184a2.3,2.3,0,0,0-.648-1.649,2.146,2.146,0,0,0-1.619-.678,2.279,2.279,0,0,0-2.266,2.266v.648h-.648V5.241a2.346,2.346,0,0,0-.506-1.467,2.133,2.133,0,0,0-1.3-.819,3.409,3.409,0,0,0-.465-.041,2.183,2.183,0,0,0-1.6.667,2.177,2.177,0,0,0-.667,1.6v2.59h-.648V5.3a2.724,2.724,0,0,0-.658-1.811A2.422,2.422,0,0,0,15.8,2.61,1.413,1.413,0,0,0,15.542,2.59Zm0-2.59a4.81,4.81,0,0,1,3.015,1.012,4.842,4.842,0,0,1,6.477,1.4,4.754,4.754,0,0,1,1.194-.142,4.633,4.633,0,0,1,3.44,1.447,4.79,4.79,0,0,1,1.417,3.471v4.978a9.831,9.831,0,0,1-.263,2.185l-2.206,8.823a6.337,6.337,0,0,0-.122,1.437,3.871,3.871,0,0,1-3.886,3.886H11.656a3.631,3.631,0,0,1-2.792-1.184,4.1,4.1,0,0,1-1.093-2.886l-6.233-5.99A4.738,4.738,0,0,1,0,14.894V10.361a4.679,4.679,0,0,1,1.426-3.43A4.672,4.672,0,0,1,4.857,5.5a1.866,1.866,0,0,1,.324.02A4.687,4.687,0,0,1,6.709,2.286a4.86,4.86,0,0,1,5.312-.89A4.9,4.9,0,0,1,15.542,0Z" fill="#fff"/>
</svg>
